<svg xmlns="http://www.w3.org/2000/svg" viewBox="0 0 480 600"><defs><linearGradient id="bg" x1="0" y1="0" x2="0" y2="1"><stop offset="0%" stop-color="#60a5fa"/><stop offset="100%" stop-color="#1e3a8a"/></linearGradient></defs><rect width="480" height="600" rx="36" fill="url(#bg)"/><circle cx="240" cy="190" r="76" fill="#f8d7c3"/><path d="M150 165c18-72 162-74 182 0-12-52-44-90-91-90-47 0-79 38-91 90Z" fill="#f3f4f6"/><rect x="170" y="262" width="140" height="126" rx="28" fill="#1f2937"/><path d="M104 520c20-96 86-144 136-144s116 48 136 144" fill="#1f2937"/><circle cx="210" cy="186" r="8" fill="#111827"/><circle cx="270" cy="186" r="8" fill="#111827"/><path d="M214 228c16 12 36 12 52 0" fill="none" stroke="#9a3412" stroke-width="6" stroke-linecap="round"/><rect x="170" y="166" width="46" height="30" rx="14" fill="none" stroke="#334155" stroke-width="6"/><rect x="264" y="166" width="46" height="30" rx="14" fill="none" stroke="#334155" stroke-width="6"/><line x1="216" y1="181" x2="264" y2="181" stroke="#334155" stroke-width="6"/><text x="36" y="556" fill="rgba(255,255,255,.92)" font-size="42" font-family="Arial, sans-serif" font-weight="700">Warren Buffett</text></svg>