<svg xmlns="http://www.w3.org/2000/svg" viewBox="0 0 480 480"><defs><linearGradient id="bg" x1="0" y1="0" x2="0" y2="1"><stop offset="0%" stop-color="#60a5fa"/><stop offset="100%" stop-color="#1e3a8a"/></linearGradient><filter id="shadow" x="-20%" y="-20%" width="140%" height="140%"><feDropShadow dx="0" dy="12" stdDeviation="12" flood-color="#0f172a" flood-opacity="0.18"/></filter></defs><rect width="480" height="480" rx="36" fill="url(#bg)"/><circle cx="240" cy="208" r="128" fill="rgba(255,255,255,.16)"/><circle cx="240" cy="190" r="104" fill="#ffffff" filter="url(#shadow)"/><circle cx="240" cy="190" r="76" fill="#f8d7c3"/><path d="M150 165c18-72 162-74 182 0-12-52-44-90-91-90-47 0-79 38-91 90Z" fill="#f3f4f6"/><circle cx="210" cy="186" r="8" fill="#111827"/><circle cx="270" cy="186" r="8" fill="#111827"/><path d="M214 228c16 12 36 12 52 0" fill="none" stroke="#9a3412" stroke-width="6" stroke-linecap="round"/><rect x="170" y="166" width="46" height="30" rx="14" fill="none" stroke="#334155" stroke-width="6"/><rect x="264" y="166" width="46" height="30" rx="14" fill="none" stroke="#334155" stroke-width="6"/><line x1="216" y1="181" x2="264" y2="181" stroke="#334155" stroke-width="6"/><text x="240" y="430" text-anchor="middle" fill="rgba(255,255,255,.96)" font-size="34" font-family="Arial, sans-serif" font-weight="700">Warren Buffett</text></svg>