<svg xmlns="http://www.w3.org/2000/svg" viewBox="0 0 480 600"><defs><linearGradient id="bg" x1="0" y1="0" x2="0" y2="1"><stop offset="0%" stop-color="#f87171"/><stop offset="100%" stop-color="#991b1b"/></linearGradient></defs><rect width="480" height="600" rx="36" fill="url(#bg)"/><circle cx="240" cy="190" r="76" fill="#f5d3bf"/><path d="M150 170c18-72 162-72 180 0-14-44-34-96-90-96-56 0-76 52-90 96Z" fill="#f3f4f6"/><rect x="168" y="262" width="144" height="126" rx="28" fill="#7f1d1d"/><path d="M102 522c24-96 90-146 138-146s114 50 138 146" fill="#7f1d1d"/><circle cx="210" cy="188" r="7" fill="#111827"/><circle cx="270" cy="188" r="7" fill="#111827"/><path d="M212 230c18 10 38 10 56 0" fill="none" stroke="#92400e" stroke-width="6" stroke-linecap="round"/><text x="36" y="556" fill="rgba(255,255,255,.94)" font-size="48" font-family="Arial, sans-serif" font-weight="700">Ray Dalio</text></svg>