<svg xmlns="http://www.w3.org/2000/svg" viewBox="0 0 480 480"><defs><linearGradient id="bg" x1="0" y1="0" x2="0" y2="1"><stop offset="0%" stop-color="#22d3ee"/><stop offset="100%" stop-color="#164e63"/></linearGradient></defs><rect width="480" height="480" rx="36" fill="url(#bg)"/><circle cx="240" cy="190" r="76" fill="#f6d6c2"/><path d="M154 166c16-64 156-72 172 0-10-44-34-86-86-86s-76 42-86 86Z" fill="#1f2937"/><rect x="168" y="262" width="144" height="126" rx="28" fill="#0f172a"/><path d="M102 522c24-96 90-146 138-146s114 50 138 146" fill="#0f172a"/><circle cx="210" cy="188" r="7" fill="#111827"/><circle cx="270" cy="188" r="7" fill="#111827"/><path d="M212 228c18 8 38 8 56 0" fill="none" stroke="#92400e" stroke-width="6" stroke-linecap="round"/><text x="36" y="556" fill="rgba(255,255,255,.94)" font-size="36" font-family="Arial, sans-serif" font-weight="700">Stan Druckenmiller</text></svg>