<svg xmlns="http://www.w3.org/2000/svg" viewBox="0 0 480 600"><defs><linearGradient id="bg" x1="0" y1="0" x2="0" y2="1"><stop offset="0%" stop-color="#a78bfa"/><stop offset="100%" stop-color="#4c1d95"/></linearGradient></defs><rect width="480" height="600" rx="36" fill="url(#bg)"/><circle cx="240" cy="190" r="76" fill="#f5d5c2"/><path d="M154 164c12-60 150-78 172 0-10-58-46-92-86-92s-74 34-86 92Z" fill="#e5e7eb"/><rect x="168" y="262" width="144" height="126" rx="28" fill="#312e81"/><path d="M102 522c24-96 90-146 138-146s114 50 138 146" fill="#312e81"/><circle cx="210" cy="188" r="7" fill="#111827"/><circle cx="270" cy="188" r="7" fill="#111827"/><path d="M214 228c16 12 36 12 52 0" fill="none" stroke="#9a3412" stroke-width="6" stroke-linecap="round"/><text x="36" y="556" fill="rgba(255,255,255,.94)" font-size="44" font-family="Arial, sans-serif" font-weight="700">Philip Fisher</text></svg>