<svg xmlns="http://www.w3.org/2000/svg" viewBox="0 0 480 480"><defs><linearGradient id="bg" x1="0" y1="0" x2="0" y2="1"><stop offset="0%" stop-color="#2dd4bf"/><stop offset="100%" stop-color="#115e59"/></linearGradient></defs><rect width="480" height="480" rx="36" fill="url(#bg)"/><circle cx="240" cy="190" r="76" fill="#f3d2bf"/><path d="M150 165c18-64 162-64 180 0-14-52-48-84-90-84s-76 32-90 84Z" fill="#0f172a"/><rect x="168" y="262" width="144" height="126" rx="28" fill="#0f172a"/><path d="M102 522c24-96 90-146 138-146s114 50 138 146" fill="#0f172a"/><circle cx="212" cy="188" r="7" fill="#111827"/><circle cx="268" cy="188" r="7" fill="#111827"/><path d="M214 232c16 10 36 10 52 0" fill="none" stroke="#7c2d12" stroke-width="6" stroke-linecap="round"/><text x="36" y="556" fill="rgba(255,255,255,.94)" font-size="44" font-family="Arial, sans-serif" font-weight="700">Ben Graham</text></svg>