<svg xmlns="http://www.w3.org/2000/svg" viewBox="0 0 480 600"><defs><linearGradient id="bg" x1="0" y1="0" x2="0" y2="1"><stop offset="0%" stop-color="#34d399"/><stop offset="100%" stop-color="#065f46"/></linearGradient></defs><rect width="480" height="600" rx="36" fill="url(#bg)"/><circle cx="240" cy="190" r="76" fill="#f7d7c2"/><path d="M154 164c14-66 160-72 176 0-8-44-36-84-88-84-52 0-80 40-88 84Z" fill="#7c2d12"/><rect x="168" y="262" width="144" height="126" rx="28" fill="#166534"/><path d="M102 522c24-96 90-146 138-146s114 50 138 146" fill="#166534"/><circle cx="212" cy="188" r="7" fill="#111827"/><circle cx="268" cy="188" r="7" fill="#111827"/><path d="M212 230c18 12 38 12 56 0" fill="none" stroke="#92400e" stroke-width="6" stroke-linecap="round"/><text x="36" y="556" fill="rgba(255,255,255,.94)" font-size="44" font-family="Arial, sans-serif" font-weight="700">Peter Lynch</text></svg>