<svg xmlns="http://www.w3.org/2000/svg" viewBox="0 0 480 480"><defs><linearGradient id="bg" x1="0" y1="0" x2="0" y2="1"><stop offset="0%" stop-color="#d97706"/><stop offset="100%" stop-color="#78350f"/></linearGradient></defs><rect width="480" height="480" rx="36" fill="url(#bg)"/><circle cx="240" cy="190" r="76" fill="#f6d4c0"/><path d="M152 166c18-62 162-66 178 0-12-50-42-86-89-86-47 0-77 36-89 86Z" fill="#f8fafc"/><rect x="166" y="262" width="148" height="126" rx="28" fill="#451a03"/><path d="M98 522c26-96 94-146 142-146s116 50 142 146" fill="#451a03"/><circle cx="212" cy="188" r="7" fill="#111827"/><circle cx="268" cy="188" r="7" fill="#111827"/><path d="M212 230c18 10 38 10 56 0" fill="none" stroke="#92400e" stroke-width="6" stroke-linecap="round"/><text x="36" y="556" fill="rgba(255,255,255,.94)" font-size="42" font-family="Arial, sans-serif" font-weight="700">Howard Marks</text></svg>