<svg xmlns="http://www.w3.org/2000/svg" viewBox="0 0 480 600"><defs><linearGradient id="bg" x1="0" y1="0" x2="0" y2="1"><stop offset="0%" stop-color="#6b7280"/><stop offset="100%" stop-color="#111827"/></linearGradient></defs><rect width="480" height="600" rx="36" fill="url(#bg)"/><circle cx="240" cy="190" r="76" fill="#f3cfbd"/><path d="M156 160c16-66 152-70 168 0-12-48-44-82-84-82s-72 34-84 82Z" fill="#f3f4f6"/><rect x="166" y="262" width="148" height="130" rx="28" fill="#374151"/><path d="M98 524c24-98 92-148 142-148s118 50 142 148" fill="#374151"/><circle cx="210" cy="188" r="7" fill="#111827"/><circle cx="270" cy="188" r="7" fill="#111827"/><path d="M212 230c18 10 38 10 56 0" fill="none" stroke="#7c2d12" stroke-width="6" stroke-linecap="round"/><rect x="170" y="168" width="44" height="28" rx="12" fill="none" stroke="#e5e7eb" stroke-width="6"/><rect x="266" y="168" width="44" height="28" rx="12" fill="none" stroke="#e5e7eb" stroke-width="6"/><line x1="214" y1="182" x2="266" y2="182" stroke="#e5e7eb" stroke-width="6"/><text x="36" y="556" fill="rgba(255,255,255,.92)" font-size="44" font-family="Arial, sans-serif" font-weight="700">Charlie Munger</text></svg>