<svg xmlns="http://www.w3.org/2000/svg" viewBox="0 0 480 480"><defs><linearGradient id="bg" x1="0" y1="0" x2="0" y2="1"><stop offset="0%" stop-color="#334155"/><stop offset="100%" stop-color="#020617"/></linearGradient></defs><rect width="480" height="480" rx="36" fill="url(#bg)"/><circle cx="240" cy="190" r="76" fill="#f3d2bf"/><path d="M150 166c18-64 162-70 180 0-10-46-36-88-90-88s-80 42-90 88Z" fill="#e5e7eb"/><rect x="168" y="262" width="144" height="126" rx="28" fill="#111827"/><path d="M102 522c24-96 90-146 138-146s114 50 138 146" fill="#111827"/><circle cx="210" cy="188" r="7" fill="#111827"/><circle cx="270" cy="188" r="7" fill="#111827"/><path d="M212 228c18 8 38 8 56 0" fill="none" stroke="#92400e" stroke-width="6" stroke-linecap="round"/><text x="36" y="556" fill="rgba(255,255,255,.94)" font-size="48" font-family="Arial, sans-serif" font-weight="700">George Soros</text></svg>