<svg xmlns="http://www.w3.org/2000/svg" width="800" height="800" viewBox="0 0 800 800" role="img" aria-label="Korea Tech">
  <defs>
    <linearGradient id="bg" x1="0" y1="0" x2="1" y2="1">
      <stop offset="0%" stop-color="#eef2ff"/>
      <stop offset="100%" stop-color="#e0f2fe"/>
    </linearGradient>
    <linearGradient id="chip" x1="0" y1="0" x2="1" y2="1">
      <stop offset="0%" stop-color="#2563eb"/>
      <stop offset="100%" stop-color="#0f766e"/>
    </linearGradient>
  </defs>
  <rect width="800" height="800" rx="72" fill="url(#bg)"/>
  <rect x="102" y="118" width="596" height="564" rx="44" fill="#ffffff" stroke="#c7d2fe" stroke-width="6"/>
  <rect x="144" y="162" width="512" height="256" rx="30" fill="url(#chip)"/>
  <rect x="194" y="212" width="412" height="156" rx="24" fill="#dbeafe" opacity="0.18"/>
  <circle cx="400" cy="290" r="62" fill="#ffffff" opacity="0.95"/>
  <path d="M360 290h80M400 250v80" stroke="#2563eb" stroke-width="18" stroke-linecap="round"/>
  <path d="M190 474h420" stroke="#cbd5e1" stroke-width="6"/>
  <rect x="146" y="506" width="228" height="118" rx="26" fill="#eff6ff" stroke="#bfdbfe" stroke-width="4"/>
  <rect x="426" y="506" width="228" height="118" rx="26" fill="#ecfeff" stroke="#a5f3fc" stroke-width="4"/>
  <path d="M186 586l34-28 30 16 46-52 42 30 44-64" fill="none" stroke="#2563eb" stroke-width="12" stroke-linecap="round" stroke-linejoin="round"/>
  <path d="M458 582l34-44 36 22 34-62 40 22" fill="none" stroke="#0f766e" stroke-width="12" stroke-linecap="round" stroke-linejoin="round"/>
  <text x="260" y="548" text-anchor="middle" font-size="34" font-family="Arial, sans-serif" font-weight="700" fill="#1d4ed8">SAMSUNG</text>
  <text x="540" y="548" text-anchor="middle" font-size="34" font-family="Arial, sans-serif" font-weight="700" fill="#0f766e">SK hynix</text>
</svg>
