<svg xmlns="http://www.w3.org/2000/svg" width="800" height="800" viewBox="0 0 800 800" role="img" aria-label="Morning Brief">
  <defs>
    <linearGradient id="bg" x1="0" y1="0" x2="1" y2="1">
      <stop offset="0%" stop-color="#fff7ed"/>
      <stop offset="100%" stop-color="#fef3c7"/>
    </linearGradient>
    <linearGradient id="sun" x1="0" y1="0" x2="1" y2="1">
      <stop offset="0%" stop-color="#fbbf24"/>
      <stop offset="100%" stop-color="#f97316"/>
    </linearGradient>
  </defs>
  <rect width="800" height="800" rx="72" fill="url(#bg)"/>
  <circle cx="608" cy="188" r="88" fill="url(#sun)" opacity="0.95"/>
  <rect x="104" y="150" width="592" height="530" rx="42" fill="#ffffff" stroke="#fde68a" stroke-width="6"/>
  <rect x="146" y="198" width="508" height="84" rx="22" fill="#fff7ed"/>
  <rect x="184" y="226" width="206" height="18" rx="9" fill="#fb923c"/>
  <rect x="184" y="256" width="132" height="14" rx="7" fill="#fdba74"/>
  <rect x="146" y="320" width="508" height="258" rx="28" fill="#fffbeb" stroke="#fde68a" stroke-width="4"/>
  <rect x="182" y="366" width="438" height="16" rx="8" fill="#f59e0b"/>
  <rect x="182" y="402" width="398" height="16" rx="8" fill="#fbbf24"/>
  <rect x="182" y="438" width="420" height="16" rx="8" fill="#fcd34d"/>
  <rect x="182" y="474" width="354" height="16" rx="8" fill="#fde68a"/>
  <rect x="182" y="520" width="146" height="22" rx="11" fill="#fb923c"/>
  <text x="255" y="536" text-anchor="middle" font-size="28" font-family="Arial, sans-serif" font-weight="700" fill="#fff7ed">AM 07:30</text>
</svg>
