<svg xmlns="http://www.w3.org/2000/svg" width="800" height="800" viewBox="0 0 800 800" role="img" aria-label="Trump Watch">
  <defs>
    <linearGradient id="bg" x1="0" y1="0" x2="1" y2="1">
      <stop offset="0%" stop-color="#fff7ed"/>
      <stop offset="100%" stop-color="#fee2e2"/>
    </linearGradient>
    <linearGradient id="card" x1="0" y1="0" x2="1" y2="1">
      <stop offset="0%" stop-color="#f97316"/>
      <stop offset="100%" stop-color="#dc2626"/>
    </linearGradient>
  </defs>
  <rect width="800" height="800" rx="72" fill="url(#bg)"/>
  <rect x="92" y="120" width="616" height="560" rx="44" fill="#ffffff" stroke="#fed7aa" stroke-width="6"/>
  <rect x="128" y="164" width="544" height="120" rx="30" fill="url(#card)"/>
  <circle cx="194" cy="224" r="34" fill="#fff7ed" opacity="0.95"/>
  <path d="M176 236c7-26 37-44 62-31 8 4 14 11 15 20-9-6-18-9-29-8-16 2-30 12-48 19z" fill="#f59e0b"/>
  <path d="M171 245c14-10 30-20 47-22 13-2 23 1 33 8-2 19-18 33-41 33-19 0-33-7-39-19z" fill="#fde68a"/>
  <rect x="278" y="194" width="286" height="18" rx="9" fill="#ffedd5" opacity="0.92"/>
  <rect x="278" y="228" width="238" height="18" rx="9" fill="#fed7aa" opacity="0.95"/>
  <rect x="278" y="262" width="176" height="18" rx="9" fill="#fdba74" opacity="0.92"/>
  <rect x="128" y="334" width="544" height="118" rx="28" fill="#fff7ed" stroke="#fed7aa" stroke-width="4"/>
  <rect x="160" y="370" width="482" height="16" rx="8" fill="#fdba74"/>
  <rect x="160" y="404" width="438" height="16" rx="8" fill="#fed7aa"/>
  <rect x="128" y="488" width="260" height="144" rx="28" fill="#eff6ff" stroke="#bfdbfe" stroke-width="4"/>
  <rect x="412" y="488" width="260" height="144" rx="28" fill="#f0fdf4" stroke="#bbf7d0" stroke-width="4"/>
  <text x="258" y="560" text-anchor="middle" font-size="46" font-family="Arial, sans-serif" font-weight="700" fill="#ea580c">TRUTH</text>
  <text x="542" y="560" text-anchor="middle" font-size="46" font-family="Arial, sans-serif" font-weight="700" fill="#16a34a">HEAT</text>
</svg>
